<?xml version="1.0" encoding="iso-8859-1"?>
<!-- Generator: Adobe Illustrator 19.0.0, SVG Export Plug-In . SVG Version: 6.00 Build 0)  -->
<svg version="1.1" id="Layer_1" xmlns="http://www.w3.org/2000/svg" xmlns:xlink="http://www.w3.org/1999/xlink" x="0px" y="0px"
	 viewBox="0 0 512 512" style="enable-background:new 0 0 512 512;" xml:space="preserve">
<g>
	<g>
		<path d="M451.57,109.803h-58.83V68.598c0-8.214-6.661-14.875-14.875-14.875H252.188V29.75h48.715
			c8.214,0,14.875-6.661,14.875-14.875S309.117,0,300.903,0h-127.18c-8.214,0-14.875,6.661-14.875,14.875
			s6.661,14.875,14.875,14.875h48.715v23.974H96.803c-8.214,0-14.875,6.661-14.875,14.875v41.205H60.43
			c-5.114,0-9.871,2.628-12.593,6.958c-2.722,4.329-3.029,9.755-0.812,14.363l34.913,72.597l0.385,190.511c0,0.004,0,0.009,0,0.015
			c0,0.006,0,0.01,0,0.016l0.419,102.923C82.775,505.378,89.425,512,97.617,512H379.6c8.214,0,14.875-6.661,14.875-14.875V394.202
			V139.553h42.221v145.305c0,8.214,6.661,14.875,14.875,14.875s14.875-6.661,14.875-14.875V124.678
			C466.445,116.464,459.786,109.803,451.57,109.803z M252.19,83.473h110.802v26.33H252.19V83.473z M252.188,359.118h40.275
			c8.214,0,14.875-6.661,14.875-14.875s-6.661-14.875-14.875-14.875h-40.275V139.843h112.537v239.484H252.188V359.118z
			 M111.678,83.473h110.761v26.33H111.678V83.473z M111.681,200.285c-0.004-2.221-0.507-4.415-1.47-6.416L84.09,139.553h9.802
			c0.942,0.187,1.914,0.289,2.911,0.289H222.44v189.526h-80.574c-8.214,0-14.875,6.661-14.875,14.875
			c0,8.214,6.661,14.875,14.875,14.875h80.572v20.209H112.042L111.681,200.285z M364.727,482.25H112.431l-0.297-73.174h252.594
			V482.25z"/>
	</g>
</g>
<g>
	<g>
		<path d="M351.674,341.331c-0.193-0.937-0.475-1.874-0.846-2.78c-0.372-0.894-0.835-1.757-1.369-2.56
			c-0.55-0.818-1.175-1.577-1.859-2.261c-0.684-0.699-1.444-1.309-2.262-1.859c-0.803-0.535-1.666-0.997-2.558-1.368
			c-0.907-0.372-1.83-0.654-2.782-0.848c-1.919-0.387-3.897-0.387-5.816,0c-0.952,0.193-1.889,0.476-2.782,0.848
			c-0.893,0.372-1.769,0.833-2.572,1.368c-0.803,0.55-1.578,1.16-2.262,1.859c-0.684,0.684-1.309,1.443-1.843,2.261
			c-0.536,0.803-0.997,1.666-1.369,2.56c-0.372,0.906-0.654,1.843-0.848,2.78c-0.193,0.967-0.297,1.95-0.297,2.915
			c0,0.967,0.104,1.95,0.297,2.901c0.193,0.953,0.476,1.891,0.848,2.782c0.372,0.907,0.833,1.77,1.369,2.573
			c0.534,0.818,1.159,1.577,1.843,2.261c0.684,0.684,1.458,1.309,2.262,1.844c0.805,0.536,1.681,0.997,2.572,1.368
			c0.894,0.372,1.83,0.655,2.782,0.848c0.953,0.193,1.934,0.296,2.901,0.296s1.949-0.103,2.915-0.296
			c0.952-0.193,1.874-0.476,2.782-0.848c0.892-0.372,1.755-0.833,2.558-1.368c0.818-0.535,1.578-1.16,2.262-1.844
			c0.684-0.684,1.309-1.443,1.859-2.261c0.534-0.803,0.997-1.666,1.369-2.573c0.372-0.893,0.653-1.828,0.846-2.782
			c0.195-0.952,0.283-1.934,0.283-2.901C351.957,343.281,351.867,342.298,351.674,341.331z"/>
	</g>
</g>
<g>
</g>
<g>
</g>
<g>
</g>
<g>
</g>
<g>
</g>
<g>
</g>
<g>
</g>
<g>
</g>
<g>
</g>
<g>
</g>
<g>
</g>
<g>
</g>
<g>
</g>
<g>
</g>
<g>
</g>
</svg>
