<?xml version="1.0" encoding="utf-8"?>
<svg version="1.1" id="Layer_1" x="0px" y="0px" viewBox="0 0 512 512" style="enable-background:new 0 0 512 512;" xmlns="http://www.w3.org/2000/svg">
  <g>
    <g>
      <path d="M 362.667 42.667 C 374.464 42.667 384 33.11 384 21.334 C 384 9.558 374.464 0 362.667 0 L 149.333 0 C 137.557 0 128 9.557 128 21.333 C 128 33.109 137.557 42.666 149.333 42.666 L 234.666 42.666 L 234.666 85.333 L 213.333 85.333 C 201.557 85.333 192 94.89 192 106.666 L 191.998 420.202 L 152.915 478.826 C 148.563 485.375 148.158 493.781 151.87 500.735 C 155.582 507.668 162.814 511.999 170.665 511.999 L 341.332 511.999 C 349.204 511.999 356.436 507.668 360.148 500.735 C 363.86 493.78 363.455 485.375 359.081 478.826 L 320 420.203 L 320 106.667 C 320 94.891 310.464 85.334 298.667 85.334 L 277.334 85.334 L 277.334 42.667 L 362.667 42.667 Z M 287.253 448 L 301.482 469.333 L 210.538 469.333 L 224.768 448 L 287.253 448 Z"/>
    </g>
  </g>
</svg>